<?xml version="1.0" encoding="UTF-8"?>
<svg version="1.1" xmlns="http://www.w3.org/2000/svg" width="1024" height="237">
<path d="M0 0 C337.92 0 675.84 0 1024 0 C1024 78.21 1024 156.42 1024 237 C686.08 237 348.16 237 0 237 C0 158.79 0 80.58 0 0 Z " fill="#FDFEFE" transform="translate(0,0)"/>
<path d="M0 0 C2.22318266 1.6510683 4.27724769 3.37805269 6.32421875 5.2421875 C7.45923828 6.25732422 7.45923828 6.25732422 8.6171875 7.29296875 C22.47021142 20.35704323 29.300758 38.6853514 36.06173706 56.08163452 C47.81531014 87.18647279 47.81531014 87.18647279 65.32421875 115.2421875 C65.88238281 115.98082031 66.44054687 116.71945313 67.015625 117.48046875 C75.79065233 128.3699605 87.9195179 134.46487124 100.32421875 140.2421875 C100.32421875 140.5721875 100.32421875 140.9021875 100.32421875 141.2421875 C80.24344835 141.33589218 60.16272271 141.40629421 40.08177853 141.44943619 C30.75651144 141.47000585 21.4313807 141.4980186 12.10620117 141.54394531 C3.97236218 141.58398533 -4.161378 141.60966092 -12.29531282 141.61854148 C-16.59675525 141.62372736 -20.89791513 141.63579734 -25.19926643 141.66510773 C-29.25979494 141.69254914 -33.31992841 141.70057549 -37.38054085 141.69461823 C-38.85942747 141.69570578 -40.3383293 141.703487 -41.81713486 141.7190094 C-62.98238221 141.93000396 -83.16387858 135.06467227 -98.67578125 120.2421875 C-115.88072969 101.0002233 -121.92118301 80.38158263 -120.86230469 54.91162109 C-119.75282357 39.03326173 -112.35719794 22.97124847 -101.67578125 11.2421875 C-100.99902344 10.48550781 -100.32226562 9.72882812 -99.625 8.94921875 C-73.35899579 -18.90300951 -30.9766935 -20.34965266 0 0 Z " fill="#20A9DD" transform="translate(181.67578125,51.7578125)"/>
<path d="M0 0 C17.60349958 -0.0703235 35.20695483 -0.12310184 52.81056309 -0.15543652 C60.9856545 -0.17085431 69.16065825 -0.19184554 77.33569336 -0.22631836 C84.46751546 -0.25637758 91.59927402 -0.27561189 98.73115772 -0.28226548 C102.50158784 -0.28615 106.27183628 -0.29517065 110.04220772 -0.31719017 C113.60366729 -0.33781766 117.16487338 -0.34378191 120.72638702 -0.33932304 C122.63079087 -0.34051953 124.53516824 -0.35652232 126.4394989 -0.3732605 C145.5688238 -0.30602686 161.9992563 4.92084141 177 17 C177.94939453 17.70382813 177.94939453 17.70382813 178.91796875 18.421875 C191.54687833 28.24757124 201.07297772 45.7905989 203.69824219 61.45019531 C205.59006026 77.43575194 205.78373646 94.17244371 199 109 C198.50371094 110.11761719 198.00742187 111.23523438 197.49609375 112.38671875 C188.36555139 130.97782308 172.6004592 144.62216495 153.11083984 151.68457031 C138.38687754 156.58127502 125.90149291 156.24031913 111.86328125 149.4921875 C104.70273295 145.54976014 98.77123899 140.76171549 93 135 C92.23945313 134.25105469 91.47890625 133.50210938 90.6953125 132.73046875 C71.97345231 113.19883953 62.10506139 83.97105457 52.07299805 59.45141602 C43.70259914 38.97572677 43.70259914 38.97572677 31 21 C30.12988281 19.99066406 30.12988281 19.99066406 29.2421875 18.9609375 C21.33067359 10.38737222 10.95323954 4.75822214 0 1 C0 0.67 0 0.34 0 0 Z " fill="#1AA19E" transform="translate(175,38)"/>
<path d="M0 0 C7.71140494 -0.14014573 15.4225015 -0.24619248 23.13486671 -0.31087303 C26.71765325 -0.34194586 30.2995572 -0.38396289 33.88183594 -0.45263672 C37.35084842 -0.51870911 40.81902218 -0.55388584 44.28861618 -0.56926346 C46.23050405 -0.58544941 48.17206287 -0.63214213 50.11343384 -0.67977905 C64.04783569 -0.6849543 74.7913405 4.58440992 85 14 C85.83144531 14.73992188 86.66289062 15.47984375 87.51953125 16.2421875 C96.36311813 24.52880501 102.32240187 34.36730086 107.6875 45.12890625 C108.02633209 45.80793503 108.36516418 46.48696381 108.71426392 47.18656921 C113.70038456 57.31199077 118.09440035 67.71486228 122.56738281 78.07397461 C126.87348026 88.02939636 131.29723277 97.86681143 136.34375 107.47265625 C136.7488681 108.24386307 137.15398621 109.01506989 137.57138062 109.80964661 C144.22145831 122.23423803 153.0547035 133.1069466 164 142 C156.49686356 150.19171541 143.47749059 153.08833551 132.828125 154.38671875 C118.07577015 154.95261596 104.71294673 148.20856921 93.8125 138.6875 C92.1893499 137.14472954 90.58477742 135.58216228 89 134 C88.23945313 133.25105469 87.47890625 132.50210938 86.6953125 131.73046875 C67.97345231 112.19883953 58.10506139 82.97105457 48.07299805 58.45141602 C39.70259914 37.97572677 39.70259914 37.97572677 27 20 C26.12988281 18.99066406 26.12988281 18.99066406 25.2421875 17.9609375 C18.23793386 10.37055385 9.20178038 5.49035829 0 1 C0 0.67 0 0.34 0 0 Z " fill="#007279" transform="translate(179,39)"/>
<path d="M0 0 C6.93 0 13.86 0 21 0 C26.28 22.77 31.56 45.54 37 69 C39.44372757 59.83602161 41.83867017 50.7148243 43.98046875 41.484375 C44.36795036 39.82888641 44.36795036 39.82888641 44.76325989 38.13995361 C45.57352515 34.67714191 46.38077031 31.21363693 47.1875 27.75 C48.00527584 24.24359662 48.82373677 20.73735792 49.64387512 17.23150635 C50.1506076 15.06497555 50.65594189 12.89811713 51.15971375 10.730896 C51.38697647 9.75847961 51.6142392 8.78606323 51.84838867 7.78417969 C52.04728195 6.93007507 52.24617523 6.07597046 52.45109558 5.19598389 C52.88936405 3.4426176 53.42847812 1.71456564 54 0 C61.26 0 68.52 0 76 0 C76 34.98 76 69.96 76 106 C71.05 106 66.1 106 61 106 C60.67 81.25 60.34 56.5 60 31 C55.94622739 45.98590226 55.94622739 45.98590226 51.89379883 60.97216797 C48.64112296 72.99424387 45.35468441 85.00597257 42 97 C39.03 97 36.06 97 33 97 C30.26210997 88.27828227 27.71623521 79.52273431 25.328125 70.69921875 C25.03728027 69.63110962 24.74643555 68.56300049 24.44677734 67.46252441 C23.37884149 63.53815323 22.31462793 59.61276986 21.25 55.6875 C17.66125 42.4771875 17.66125 42.4771875 14 29 C13.67 54.41 13.34 79.82 13 106 C8.71 106 4.42 106 0 106 C0 71.02 0 36.04 0 0 Z " fill="#046B76" transform="translate(416,67)"/>
<path d="M0 0 C6.98845263 -0.0768728 13.97679389 -0.1289403 20.96557617 -0.16479492 C23.33671137 -0.17976238 25.70781946 -0.2001436 28.07885742 -0.22631836 C52.11607331 -0.48478305 71.5926099 1.37244528 91 17 C91.63292969 17.46921875 92.26585937 17.9384375 92.91796875 18.421875 C105.54687833 28.24757124 115.07297772 45.7905989 117.69824219 61.45019531 C120.1640255 82.2856653 118.37207392 100.63922233 108 119 C92.0454291 110.27780674 85.31066049 83.50255803 78.97460938 67.69335938 C75.4152826 58.86845672 71.53154742 50.36444085 67 42 C66.42894531 40.93007812 65.85789062 39.86015625 65.26953125 38.7578125 C61.24163813 31.51313517 56.48628593 25.20402584 51 19 C50.42507813 18.34128906 49.85015625 17.68257812 49.2578125 17.00390625 C45.21497016 12.66123589 40.61329524 9.64284351 35.55078125 6.578125 C33 5 33 5 31.26147461 3.43334961 C28.19147238 1.48754554 25.88343489 1.56761919 22.265625 1.48828125 C20.97011719 1.45283203 19.67460937 1.41738281 18.33984375 1.38085938 C16.97656774 1.35776133 15.61328636 1.33497886 14.25 1.3125 C12.87106138 1.27931352 11.4921535 1.24482262 10.11328125 1.20898438 C6.74226941 1.12647709 3.37151872 1.05733229 0 1 C0 0.67 0 0.34 0 0 Z " fill="#62CBC3" transform="translate(261,38)"/>
<path d="M0 0 C4.62 0 9.24 0 14 0 C14 34.98 14 69.96 14 106 C9.38 106 4.76 106 0 106 C-0.33 104.35 -0.66 102.7 -1 101 C-1.9075 101.804375 -2.815 102.60875 -3.75 103.4375 C-7.86882506 107.08827676 -12.2647626 107.40942613 -17.62109375 107.34765625 C-22.8729625 106.58014177 -26.6087117 103.35368591 -30.3125 99.75 C-34.52513775 92.8849607 -35.46046576 85.9573418 -35.43359375 78.03125 C-35.4388356 77.11089966 -35.44407745 76.19054932 -35.44947815 75.24230957 C-35.45586007 73.30949913 -35.45461145 71.37664965 -35.44604492 69.44384766 C-35.43752156 66.50742772 -35.46637155 63.5729479 -35.49804688 60.63671875 C-35.49965903 58.74739641 -35.49908109 56.85807067 -35.49609375 54.96875 C-35.50732773 54.10286255 -35.51856171 53.2369751 -35.53013611 52.34484863 C-35.44507958 44.80873995 -33.41068954 38.83256021 -28.5 33.0625 C-23.19940823 28.68951179 -18.98454188 28.58420421 -12.21484375 28.66796875 C-7.57272653 29.14740977 -4.34872733 30.65127267 -1 34 C-0.67 22.78 -0.34 11.56 0 0 Z " fill="#036C77" transform="translate(661,67)"/>
<path d="M0 0 C4.62 0 9.24 0 14 0 C14 34.98 14 69.96 14 106 C9.71 106 5.42 106 1 106 C1 104.02 1 102.04 1 100 C0.34 100 -0.32 100 -1 100 C-1.185625 100.598125 -1.37125 101.19625 -1.5625 101.8125 C-3.67413965 105.02586468 -6.40985595 106.05127372 -10 107 C-16.49483846 107.96607812 -21.60972822 106.74868901 -27 103 C-34.13212926 95.86787074 -35.14891152 86.95831961 -35.23828125 77.3671875 C-35.246353 76.5347049 -35.25442474 75.70222229 -35.26274109 74.84451294 C-35.27653851 73.0845139 -35.28727998 71.32448858 -35.29516602 69.56445312 C-35.30665329 67.78214559 -35.32705331 65.99987158 -35.35668945 64.21777344 C-35.73928326 41.17664907 -35.73928326 41.17664907 -29.16137695 33.99169922 C-23.63561455 28.9907974 -19.59972089 28.72447699 -12.21484375 28.7734375 C-7.35684583 29.11579944 -4.39498409 30.60501591 -1 34 C-0.67 22.78 -0.34 11.56 0 0 Z " fill="#056B77" transform="translate(599,67)"/>
<path d="M0 0 C18.00988667 -0.86564651 31.4105092 -0.51993474 45.63671875 11.8203125 C46.80654297 12.89925781 46.80654297 12.89925781 48 14 C48.83144531 14.73992188 49.66289062 15.47984375 50.51953125 16.2421875 C59.36311813 24.52880501 65.32240187 34.36730086 70.6875 45.12890625 C71.02633209 45.80793503 71.36516418 46.48696381 71.71426392 47.18656921 C76.70038456 57.31199077 81.09440035 67.71486228 85.56738281 78.07397461 C89.87348026 88.02939636 94.29723277 97.86681143 99.34375 107.47265625 C99.7488681 108.24386307 100.15398621 109.01506989 100.57138062 109.80964661 C107.22145831 122.23423803 116.0547035 133.1069466 127 142 C123.2148034 145.96544406 119.96267224 147.79326946 114.5234375 148.27734375 C109.37906746 147.71194085 105.8368703 144.23384908 102 141 C101.17371094 140.34644531 100.34742188 139.69289062 99.49609375 139.01953125 C83.32917748 125.53445086 74.2959436 105.34511464 66.0625 86.4375 C65.35806301 84.83671315 64.65297857 83.23621108 63.94726562 81.63598633 C60.60001851 74.03075651 57.30643521 66.40473163 54.07958984 58.74755859 C48.48370013 45.47788434 42.77326226 32.79131041 33 22 C32.278125 21.19691406 31.55625 20.39382812 30.8125 19.56640625 C22.0663508 10.31917558 11.63835987 6.46213797 0 2 C0 1.34 0 0.68 0 0 Z " fill="#008B8C" transform="translate(216,39)"/>
<path d="M0 0 C5.00927551 4.28824343 8.79529468 9.44104881 10 16 C10.21879068 20.03768261 10.13806915 23.9499716 10 28 C5.38 28 0.76 28 -4 28 C-4.1546875 25.958125 -4.1546875 25.958125 -4.3125 23.875 C-4.88117812 18.71627701 -6.26705104 14.73294896 -10 11 C-13.60799796 9.66370446 -17.19782466 9.73318068 -21 10 C-24.5386994 11.65139305 -25.81070153 12.71605229 -28 16 C-28.96692939 21.6714128 -28.7031439 26.68605724 -25.625 31.625 C-20.14208158 38.82453306 -13.07261629 44.26506846 -5.8125 49.5625 C2.31598401 55.59364731 8.69348952 61.84589469 11 72 C11.87675856 80.46026813 12.09434089 88.83185662 7 96 C1.9586107 101.78164393 -3.89868101 104.62840398 -11.4921875 105.31640625 C-20.85870803 105.60852108 -28.43869103 104.75040959 -35.8125 98.6875 C-36.8953125 97.3571875 -36.8953125 97.3571875 -38 96 C-38.66128906 95.21109375 -38.66128906 95.21109375 -39.3359375 94.40625 C-44.81435843 87.43947194 -45.26993337 80.63786796 -45 72 C-40.05 72 -35.1 72 -30 72 C-29.731875 73.711875 -29.46375 75.42375 -29.1875 77.1875 C-28.13360231 83.04409756 -28.13360231 83.04409756 -25 88 C-20.60682104 90.89550431 -17.21531417 91.55878366 -12 91 C-7.7667988 89.44505833 -7.7667988 89.44505833 -4.859375 86.1875 C-3.05221631 81.58745971 -3.07100448 76.48032784 -4.8046875 71.8515625 C-9.30539288 63.99860759 -16.91176934 58.76373229 -24.0625 53.5 C-32.907077 46.92845678 -41.85622097 39.41183382 -44 28 C-44.75490289 18.78147438 -43.73031776 11.09246988 -37.9375 3.6875 C-28.4033287 -6.26379129 -11.50690187 -7.3151019 0 0 Z " fill="#046B77" transform="translate(731,69)"/>
<path d="M0 0 C6.04205737 3.86583537 9.59006575 9.46699079 11.25 16.375 C11.59942409 20.88503353 11.53360165 25.35510424 11.4375 29.875 C11.375625 34 11.31375 38.125 11.25 42.375 C0.03 42.705 -11.19 43.035 -22.75 43.375 C-22.92284917 56.03648066 -22.92284917 56.03648066 -19.6875 60.75 C-15.5832586 63.02043141 -13.41419693 62.96727897 -8.75 62.375 C-6.26894806 61.47264165 -6.26894806 61.47264165 -4.75 59.375 C-3.46157463 55.78432038 -3.46157463 55.78432038 -2.75 52.375 C1.87 52.375 6.49 52.375 11.25 52.375 C10.70979682 60.37000708 10.06507618 65.99791017 3.9375 71.625 C-1.93039509 76.71324469 -8.75704445 76.87178652 -16.19921875 76.75390625 C-22.80783117 76.04869678 -28.26120756 73.36866619 -32.75 68.4375 C-36.87965839 62.11396059 -37.06876877 56.33715092 -37.0859375 49.0078125 C-37.0925943 48.01425751 -37.0992511 47.02070251 -37.10610962 45.99703979 C-37.11620799 43.90087732 -37.12092751 41.80468287 -37.12060547 39.70849609 C-37.12497622 36.5173599 -37.16131984 33.32761038 -37.19921875 30.13671875 C-37.20508813 28.0937547 -37.20905671 26.05078412 -37.2109375 24.0078125 C-37.22530853 23.06173126 -37.23967957 22.11565002 -37.25448608 21.14089966 C-37.20872366 14.44018693 -36.00518781 8.88922954 -31.33798218 3.85061646 C-23.5898697 -3.00933141 -9.49542592 -4.37409255 0 0 Z " fill="#066C77" transform="translate(541.75,97.625)"/>
<path d="M0 0 C15.18 0 30.36 0 46 0 C46 0.33 46 0.66 46 1 C37.585 1.495 37.585 1.495 29 2 C30.44375 2.804375 31.8875 3.60875 33.375 4.4375 C60.15140669 20.54872776 71.22838156 50.4890555 82.70117188 77.90625 C90.50052587 100.1515571 90.50052587 100.1515571 105 117 C103.59601721 121.10110762 101.62912962 123.98089159 98.875 127.3125 C98.15054688 128.19550781 97.42609375 129.07851562 96.6796875 129.98828125 C96.12539063 130.65214844 95.57109375 131.31601563 95 132 C70.31776802 117.75219207 60.14600388 79.96999736 50.06640625 55.28515625 C40.9437613 33.17936165 27.69675882 12.98195307 5.3359375 2.78515625 C3.58468938 2.11374133 1.79644603 1.53893381 0 1 C0 0.67 0 0.34 0 0 Z " fill="#40B7B0" transform="translate(263,39)"/>
<path d="M0 0 C4.75901215 3.45261666 7.33599526 6.76024561 9.1875 12.3125 C9.42800903 15.30549622 9.42800903 15.30549622 9.41455078 18.66333008 C9.41439972 19.9242598 9.41424866 21.18518951 9.41409302 22.48432922 C9.40388136 23.85023152 9.3934494 25.21613219 9.3828125 26.58203125 C9.37907941 27.98735859 9.37623383 29.39268853 9.37423706 30.79801941 C9.36662389 34.48549668 9.34699553 38.17281482 9.3248291 41.86022949 C9.30432059 45.62750089 9.29522467 49.39479816 9.28515625 53.16210938 C9.26374723 60.54565364 9.22858422 67.92903419 9.1875 75.3125 C4.8975 75.3125 0.6075 75.3125 -3.8125 75.3125 C-4.3075 71.3525 -4.3075 71.3525 -4.8125 67.3125 C-5.369375 68.075625 -5.92625 68.83875 -6.5 69.625 C-10.71522264 74.52377225 -14.81819352 76.02458591 -21.0625 76.625 C-26.42075542 76.17847871 -30.65558057 74.60788833 -34.39453125 70.62890625 C-39.52032784 63.76004339 -39.51572279 56.71098931 -38.8125 48.3125 C-37.4381337 43.11309012 -34.72332023 39.33583933 -30.12109375 36.40625 C-21.90815801 32.51518061 -12.84781354 30.7288739 -3.8125 30.3125 C-3.90010589 28.24923023 -4.00829273 26.1868284 -4.125 24.125 C-4.18300781 22.97644531 -4.24101563 21.82789062 -4.30078125 20.64453125 C-4.84014249 17.13250728 -5.7119723 15.14950902 -7.8125 12.3125 C-11.01470529 10.71139736 -14.33750398 10.82296683 -17.8125 11.3125 C-21.9727252 14.15896988 -22.11364442 16.21593327 -23.8125 21.3125 C-28.4325 21.3125 -33.0525 21.3125 -37.8125 21.3125 C-37.8125 13.94968107 -37.15636202 9.90200117 -32.1640625 4.54296875 C-23.9873099 -2.79468479 -10.18443975 -4.76431178 0 0 Z " fill="#046B76" transform="translate(834.8125,97.6875)"/>
<path d="M0 0 C4.29 0 8.58 0 13 0 C13.33 20.13 13.66 40.26 14 61 C20.52916952 50.70123172 20.52916952 50.70123172 26.63671875 40.15625 C31.77990036 30.74725305 31.77990036 30.74725305 35.90185547 29.35986328 C40.35476284 28.72644379 44.5782672 29.2040881 49 30 C47.40862033 35.02797871 44.37914546 38.71005849 41.1875 42.8125 C38.04513324 46.87155225 34.93495536 50.95121809 32.05078125 55.19921875 C31.42103394 56.11513794 31.42103394 56.11513794 30.77856445 57.04956055 C29.67660986 59.81014857 30.12243578 61.15899026 31 64 C32.11455763 66.58674536 33.26619617 69.11217171 34.4921875 71.64453125 C34.83879425 72.37314865 35.185401 73.10176605 35.54251099 73.85246277 C36.64807377 76.17503281 37.76094121 78.49399469 38.875 80.8125 C39.98111726 83.120656 41.08551549 85.42958628 42.18606567 87.74040222 C42.86938788 89.17458509 43.55592481 90.6072426 44.24630737 92.03804016 C46.42957473 96.61270169 48.2754649 101.23273537 50 106 C45.05 106 40.1 106 35 106 C33.00270418 101.62327268 31.00771656 97.24564332 29.01855469 92.86523438 C28.34086709 91.37471151 27.66183545 89.88479898 26.98144531 88.39550781 C26.0049389 86.25744274 25.03325234 84.11724508 24.0625 81.9765625 C23.75626709 81.30879791 23.45003418 80.64103333 23.13452148 79.95303345 C21 75.22774341 21 75.22774341 21 73 C16.31540398 77.56131718 13.78811305 80.12362145 13.5859375 86.76171875 C13.54726563 87.87998047 13.50859375 88.99824219 13.46875 90.15039062 C13.42234375 91.90125977 13.42234375 91.90125977 13.375 93.6875 C13.31699219 95.45577148 13.31699219 95.45577148 13.2578125 97.25976562 C13.16345943 100.17291668 13.08063758 103.08643703 13 106 C8.71 106 4.42 106 0 106 C0 71.02 0 36.04 0 0 Z " fill="#026974" transform="translate(917,67)"/>
<path d="M0 0 C5.0606512 3.20697447 8.23447357 8.14794233 10.6875 13.5 C11.47389443 17.27469326 11.44533629 20.64774753 11.3125 24.5 C6.6925 24.5 2.0725 24.5 -2.6875 24.5 C-2.914375 23.283125 -3.14125 22.06625 -3.375 20.8125 C-4.47729194 16.50284472 -5.97956967 14.13675046 -9.6875 11.5 C-13.23021642 10.74988633 -13.23021642 10.74988633 -16.6875 11.5 C-19.05247439 13.36708505 -20.34780715 14.82061431 -21.6875 17.5 C-21.81105235 20.35836493 -21.875932 23.19137464 -21.890625 26.05078125 C-21.89632507 26.90173874 -21.90202515 27.75269623 -21.90789795 28.62944031 C-21.91735298 30.43255366 -21.92388392 32.23568433 -21.92773438 34.03881836 C-21.93742487 36.79116198 -21.96843675 39.54275408 -22 42.29492188 C-22.00653163 44.04687057 -22.01178147 45.7988246 -22.015625 47.55078125 C-22.0279718 48.37177811 -22.0403186 49.19277496 -22.05303955 50.03865051 C-22.03503929 54.68087484 -21.70682262 57.73044095 -18.6875 61.5 C-15.54878812 63.06935594 -13.14894178 62.85201103 -9.6875 62.5 C-4.65504988 58.9213688 -3.76688385 55.28942246 -2.6875 49.5 C1.9325 49.5 6.5525 49.5 11.3125 49.5 C11.81280251 56.25408382 10.74906368 61.59640597 7.3125 67.5 C2.49925734 73.06083141 -2.38611851 75.98143244 -9.765625 76.87109375 C-17.4893571 77.0327975 -23.37670453 76.17422724 -29.6875 71.5 C-35.54599665 65.68295498 -36.89114913 58.51660787 -37.01669312 50.53421021 C-37.01891876 49.67987396 -37.02114441 48.82553772 -37.0234375 47.9453125 C-37.0300943 47.04432831 -37.0367511 46.14334412 -37.04360962 45.21505737 C-37.05369107 43.31738309 -37.05842804 41.41967369 -37.05810547 39.52197266 C-37.06247672 36.64034841 -37.09883857 33.76025997 -37.13671875 30.87890625 C-37.14258851 29.02604685 -37.14655684 27.17318025 -37.1484375 25.3203125 C-37.16280853 24.47002472 -37.17717957 23.61973694 -37.19198608 22.74368286 C-37.13491877 15.16101579 -35.0087329 8.6559857 -29.75 3.0625 C-22.4098925 -3.0792226 -8.86921821 -3.89969516 0 0 Z " fill="#046A76" transform="translate(893.6875,97.5)"/>
<path d="M0 0 C4.62 0 9.24 0 14 0 C14 7.59 14 15.18 14 23 C17.96 23 21.92 23 26 23 C26 26.63 26 30.26 26 34 C22.04 34 18.08 34 14 34 C14.09334542 41.08438611 14.19939643 48.16842275 14.31738281 55.25244141 C14.35573647 57.66384628 14.3905779 60.07530962 14.421875 62.48681641 C14.46738703 65.94715313 14.52540404 69.40708508 14.5859375 72.8671875 C14.59748871 73.95055389 14.60903992 75.03392029 14.62094116 76.15011597 C14.64081085 77.1510025 14.66068054 78.15188904 14.68115234 79.18310547 C14.69447601 80.06690887 14.70779968 80.95071228 14.7215271 81.86129761 C14.80669004 84.2132825 14.80669004 84.2132825 17 86 C19.20250992 86.46006346 19.20250992 86.46006346 21.625 86.625 C23.06875 86.74875 24.5125 86.8725 26 87 C26 90.96 26 94.92 26 99 C23.62429457 99.0816082 21.25144159 99.14077222 18.875 99.1875 C18.20984375 99.21263672 17.5446875 99.23777344 16.859375 99.26367188 C12.12168162 99.33334384 9.01411142 98.49477911 5 96 C1.16691606 91.75252861 -0.1264398 89.38063077 -0.11352539 83.72412109 C-0.11344986 82.6231308 -0.11337433 81.5221405 -0.11329651 80.38778687 C-0.10813522 79.19505157 -0.10297394 78.00231628 -0.09765625 76.7734375 C-0.0962413 75.55548492 -0.09482635 74.33753235 -0.09336853 73.08267212 C-0.08775639 69.1800901 -0.07520179 65.27756477 -0.0625 61.375 C-0.05748657 58.73437583 -0.05292339 56.09375076 -0.04882812 53.453125 C-0.037783 46.96872805 -0.02051018 40.48437365 0 34 C-3.63 34 -7.26 34 -11 34 C-11 30.37 -11 26.74 -11 23 C-7.37 23 -3.74 23 0 23 C0 15.41 0 7.82 0 0 Z " fill="#016A76" transform="translate(760,74)"/>
<path d="M0 0 C16.76526754 0.86716901 33.55610692 9.78676957 45 22 C62.71412897 42.68712964 65.64867207 62.86750731 65.29052734 89.12182617 C65.0043576 91.95683044 64.55831066 93.63634391 63 96 C62.01 96.495 62.01 96.495 61 97 C55.92318739 87.65269208 51.75339368 78.06193402 47.8923645 68.15478516 C41.51119448 51.79543958 34.83658484 36.01046701 23.71484375 22.25 C22 20 22 20 21 17 C20.34 17 19.68 17 19 17 C18.505 16.319375 18.01 15.63875 17.5 14.9375 C12.60029858 9.18035083 5.87336546 5.07492665 -1 2 C-0.67 1.34 -0.34 0.68 0 0 Z " fill="#76D7CE" transform="translate(314,39)"/>
<path d="M0 0 C2.67495981 2.01148355 4.68103852 3.63259789 5.46534729 6.9949646 C5.64510583 9.42540337 5.66681794 11.80924892 5.62890625 14.24609375 C5.63131821 15.13482681 5.63373016 16.02355988 5.63621521 16.93922424 C5.63523794 18.8144274 5.62187282 20.68965983 5.59692383 22.56469727 C5.56264984 25.42499546 5.57626148 28.28219606 5.59570312 31.14257812 C5.58880309 32.96876308 5.57912929 34.79494008 5.56640625 36.62109375 C5.57136612 37.47126572 5.57632599 38.32143768 5.58143616 39.19737244 C5.472683 44.72047685 4.58866099 47.74719145 1 52 C-2.47531087 53.73765543 -6.2088001 53.59585352 -10 53 C-13.28175318 50.47031526 -14.69243777 48.92268669 -16 45 C-16.12061244 42.42327966 -16.18808081 39.87442161 -16.203125 37.296875 C-16.20882507 36.54085999 -16.21452515 35.78484497 -16.22039795 35.00592041 C-16.22983965 33.40549108 -16.23637864 31.80504238 -16.24023438 30.20458984 C-16.24990945 27.77276 -16.28092679 25.34178672 -16.3125 22.91015625 C-16.3190337 21.35156749 -16.32428273 19.79297272 -16.328125 18.234375 C-16.3404718 17.51433289 -16.3528186 16.79429077 -16.36553955 16.0524292 C-16.34034269 10.25495214 -15.15323784 5.56732204 -11.375 1.0625 C-7.69982608 -0.58165675 -3.91610306 -1.00379033 0 0 Z " fill="#F8FBFB" transform="translate(594,108)"/>
<path d="M0 0 C2.8100346 1.79363911 4.50940468 3.01880935 6 6 C6.12347091 8.77397982 6.18842085 11.52183194 6.203125 14.296875 C6.20882507 15.12326477 6.21452515 15.94965454 6.22039795 16.80108643 C6.22985351 18.55292479 6.23638413 20.30478098 6.24023438 22.05664062 C6.24991146 24.72558082 6.28091706 27.39374156 6.3125 30.0625 C6.31903304 31.76562043 6.32428233 33.46874637 6.328125 35.171875 C6.3404718 35.96583679 6.3528186 36.75979858 6.36553955 37.57781982 C6.34277078 43.29736538 5.25902231 47.48997521 1.3125 51.875 C-2.10048436 53.53537077 -5.32614249 53.67062478 -9 53 C-12.44312714 50.8755173 -13.71617547 49.85147359 -15 46 C-15.13303956 43.19369115 -15.21225613 40.41304118 -15.23828125 37.60546875 C-15.246353 36.78049393 -15.25442474 35.9555191 -15.26274109 35.10554504 C-15.27656573 33.35969128 -15.28729513 31.61381068 -15.29516602 29.86791992 C-15.31236972 27.20764533 -15.35626773 24.54861692 -15.40039062 21.88867188 C-15.41051904 20.19011328 -15.41903468 18.49154415 -15.42578125 16.79296875 C-15.44328934 16.00214401 -15.46079742 15.21131927 -15.47883606 14.39653015 C-15.4583467 9.13930022 -14.4921688 6.16211599 -11 2 C-7.31502204 -0.45665197 -4.28028214 -0.70086491 0 0 Z " fill="#FCFDFD" transform="translate(655,108)"/>
<path d="M0 0 C0.845625 0.0103125 1.69125 0.020625 2.5625 0.03125 C5.44255295 0.58510634 6.85309728 1.52883932 9 3.5 C11.89280094 9.14096183 11.1371574 15.32791694 11 21.5 C4.4 21.83 -2.2 22.16 -9 22.5 C-9.0825 19.798125 -9.165 17.09625 -9.25 14.3125 C-9.30462402 13.04950073 -9.30462402 13.04950073 -9.36035156 11.76098633 C-9.41665337 7.94109019 -9.21492317 5.88104499 -7.296875 2.48046875 C-4.61277726 0.16611916 -3.49496868 -0.12786471 0 0 Z " fill="#F5F9FA" transform="translate(528,107.5)"/>
<path d="M0 0 C1.03307219 11.47857993 1.03307219 11.47857993 -2.8125 16.625 C-5.66183708 19.95977969 -7.88928261 21.85601812 -12.375 22.4375 C-16 22 -16 22 -18.9375 20 C-21.24660559 16.64130096 -21.71269756 14.90250243 -21.3984375 10.921875 C-20.69424353 7.52517468 -19.67867474 6.24261141 -17 4 C-11.30438279 1.28991693 -6.3429457 -0.25259518 0 0 Z " fill="#F3F9F9" transform="translate(831,139)"/>
<path d="M0 0 C0.33 0 0.66 0 1 0 C1 34.65 1 69.3 1 105 C-3.29 105 -7.58 105 -12 105 C-12 103.35 -12 101.7 -12 100 C-11.34 100.66 -10.68 101.32 -10 102 C-6.7 102.33 -3.4 102.66 0 103 C0 69.01 0 35.02 0 0 Z " fill="#005360" transform="translate(673,68)"/>
<path d="M0 0 C4.29 0 8.58 0 13 0 C12.67 0.66 12.34 1.32 12 2 C8.7 2 5.4 2 2 2 C2 13.22 2 24.44 2 36 C1.34 35.67 0.68 35.34 0 35 C0 23.45 0 11.9 0 0 Z " fill="#005F6B" transform="translate(661,67)"/>
<path d="M0 0 C4.62 0 9.24 0 14 0 C14 7.92 14 15.84 14 24 C13.34 23.67 12.68 23.34 12 23 C12 16.07 12 9.14 12 2 C8.37 2 4.74 2 1 2 C1 8.93 1 15.86 1 23 C0.67 23 0.34 23 0 23 C0 15.41 0 7.82 0 0 Z " fill="#095B68" transform="translate(760,74)"/>
<path d="M0 0 C4.95 0 9.9 0 15 0 C15 2.97 15 5.94 15 9 C13 6 13 6 13 1 C9.37 1.33 5.74 1.66 2 2 C2 3.32 2 4.64 2 6 C1.34 6 0.68 6 0 6 C0 4.02 0 2.04 0 0 Z " fill="#125E6C" transform="translate(686,141)"/>
<path d="M0 0 C4.95 0 9.9 0 15 0 C14.34 1.32 13.68 2.64 13 4 C12.67 3.34 12.34 2.68 12 2 C8.04 2 4.08 2 0 2 C0 1.34 0 0.68 0 0 Z " fill="#1D6A77" transform="translate(951,97)"/>
<path d="M0 0 C4.29 0 8.58 0 13 0 C12.67 0.66 12.34 1.32 12 2 C8.7 2 5.4 2 2 2 C1.67 3.65 1.34 5.3 1 7 C0.67 7 0.34 7 0 7 C0 4.69 0 2.38 0 0 Z " fill="#12616F" transform="translate(661,67)"/>
<path d="M0 0 C0.66 0.66 1.32 1.32 2 2 C4.43252661 2.46162427 4.43252661 2.46162427 7.125 2.625 C8.03507813 2.69976562 8.94515625 2.77453125 9.8828125 2.8515625 C10.58148437 2.90054688 11.28015625 2.94953125 12 3 C12 3.66 12 4.32 12 5 C8.04 5 4.08 5 0 5 C0 3.35 0 1.7 0 0 Z " fill="#005F6D" transform="translate(661,168)"/>
<path d="M0 0 C3.45101522 4.24740335 6.73279209 8.61105071 10 13 C9.01 13 8.02 13 7 13 C5.17578125 11.171875 5.17578125 11.171875 3.3125 8.75 C2.68988281 7.96109375 2.06726563 7.1721875 1.42578125 6.359375 C0 4 0 4 0 0 Z " fill="#156572" transform="translate(702,96)"/>
</svg>
